HIERARCHY
ROOT SpineBase
{
  OFFSET 0.000000 0.000000 0.000000
  CHANNELS 6 Xposition Yposition Zposition Zrotation Xrotation Yrotation
  JOINT SpineMid
  {
    OFFSET 0.000000 31.513244 0.000000
    CHANNELS 3 Zrotation Xrotation Yrotation
    JOINT SpineShoulder
    {
      OFFSET 0.206019 23.301125 -0.726564
      CHANNELS 3 Zrotation Xrotation Yrotation
      JOINT Neck
      {
        OFFSET 0.124110 7.695880 -0.543849
        CHANNELS 3 Zrotation Xrotation Yrotation
        JOINT Head
        {
          OFFSET 0.982042 12.160339 0.250711
          CHANNELS 3 Zrotation Xrotation Yrotation
          End Site
          {
            OFFSET 0 0 0
          }
        }
      }
      JOINT ShoulderLeft
      {
        OFFSET -16.663641 -4.259848 -3.861676
        CHANNELS 3 Zrotation Xrotation Yrotation
        JOINT ElbowLeft
        {
          OFFSET -7.001587 -29.349917 -1.179426
          CHANNELS 3 Zrotation Xrotation Yrotation
          JOINT WristLeft
          {
            OFFSET -1.281267 -23.387344 -8.315304
            CHANNELS 3 Zrotation Xrotation Yrotation
            JOINT HandLeft
            {
              OFFSET -1.129869 -2.935676 -0.652515
              CHANNELS 3 Zrotation Xrotation Yrotation
              JOINT HandTipLeft
              {
                OFFSET 0.321105 -7.977791 -0.373603
                CHANNELS 3 Zrotation Xrotation Yrotation
                End Site
                {
                  OFFSET 0 0 0
                }
              }
              JOINT ThumbLeft
              {
                OFFSET 4.538912 4.063337 -0.357876
                CHANNELS 3 Zrotation Xrotation Yrotation
                End Site
                {
                  OFFSET 0 0 0
                }
              }
            }
          }
        }
      }
      JOINT ShoulderRight
      {
        OFFSET 17.855878 -3.977010 -0.297256
        CHANNELS 3 Zrotation Xrotation Yrotation
        JOINT ElbowRight
        {
          OFFSET 5.616849 -30.220884 0.585808
          CHANNELS 3 Zrotation Xrotation Yrotation
          JOINT WristRight
          {
            OFFSET 2.287424 -23.980752 -5.750210
            CHANNELS 3 Zrotation Xrotation Yrotation
            JOINT HandRight
            {
              OFFSET -1.355699 -2.701794 0.486036
              CHANNELS 3 Zrotation Xrotation Yrotation
              JOINT HandTipRight
              {
                OFFSET -0.716401 -8.264705 -0.770096
                CHANNELS 3 Zrotation Xrotation Yrotation
                End Site
                {
                  OFFSET 0 0 0
                }
              }
              JOINT ThumbRight
              {
                OFFSET 3.347462 0.014372 -0.026729
                CHANNELS 3 Zrotation Xrotation Yrotation
                End Site
                {
                  OFFSET 0 0 0
                }
              }
            }
          }
        }
      }
    }
  }
  JOINT HipLeft
  {
    OFFSET -6.338678 0.515469 -4.642212
    CHANNELS 3 Zrotation Xrotation Yrotation
    JOINT KneeLeft
    {
      OFFSET -5.940815 -35.232898 3.332605
      CHANNELS 3 Zrotation Xrotation Yrotation
      JOINT AnkleLeft
      {
        OFFSET -6.626829 -37.433304 12.738765
        CHANNELS 3 Zrotation Xrotation Yrotation
        JOINT FootLeft
        {
          OFFSET -1.238638 -7.035398 -5.035073
          CHANNELS 3 Zrotation Xrotation Yrotation
          End Site
          {
            OFFSET 0 0 0
          }
        }
      }
    }
  }
  JOINT HipRight
  {
    OFFSET 7.614222 0.886082 -2.626948
    CHANNELS 3 Zrotation Xrotation Yrotation
    JOINT KneeRight
    {
      OFFSET 5.895982 -35.684799 -0.859560
      CHANNELS 3 Zrotation Xrotation Yrotation
      JOINT AnkleRight
      {
        OFFSET 4.067789 -37.024159 10.852575
        CHANNELS 3 Zrotation Xrotation Yrotation
        JOINT FootRight
        {
          OFFSET 1.933239 -5.473657 -7.991558
          CHANNELS 3 Zrotation Xrotation Yrotation
          End Site
          {
            OFFSET 0 0 0
          }
        }
      }
    }
  }
}
MOTION
Frames: 8
Frame Time: 0.033333
-61.198310 80.557524 337.737094 0.066718 -0.644261 -7.087721 0.264391 -0.091193 7.103659 0.003816 -0.228324 0.022694 0.006886 -4.061006 0.375070 0.000000 0.000000 0.000000 0.472435 -0.247826 0.224055 2.662913 -2.379091 -1.271577 14.701838 -17.098638 8.220808 -15.150298 24.661360 -2.050530 0.000000 0.000000 0.000000 0.000000 0.000000 0.000000 2.450453 -0.685152 -0.300614 -6.549327 3.962922 1.601496 -1.602214 13.755115 -9.620406 8.781546 -11.525026 9.930150 0.000000 0.000000 0.000000 0.000000 0.000000 0.000000 -0.145710 0.631104 7.088898 1.686438 -0.794338 0.726431 1.605848 11.504398 -4.936877 0.000000 0.000000 0.000000 -0.701890 -0.613271 6.913062 2.457879 0.579380 0.589514 -2.212917 12.378188 3.939317 0.000000 0.000000 0.000000
-61.580723 80.470863 337.829270 0.083173 -0.881724 -5.743120 0.311700 -0.137286 5.763084 0.017805 -0.257148 0.028743 1.191745 -4.326788 0.420662 0.000000 0.000000 0.000000 1.079080 0.325942 0.109336 2.246887 -2.196125 -1.289161 13.183464 -13.689125 6.215638 -13.724855 21.327344 -1.497203 0.000000 0.000000 0.000000 0.000000 0.000000 0.000000 3.207986 -0.204602 -0.288324 -12.215421 4.754503 3.102004 3.585528 5.988062 -7.660530 7.138600 -5.557737 5.854253 0.000000 0.000000 0.000000 0.000000 0.000000 0.000000 -0.171004 0.868973 5.745056 2.471004 -0.722442 0.986129 -0.103601 12.365601 -4.571895 0.000000 0.000000 0.000000 -0.758257 -0.603151 5.531448 3.054678 0.918642 0.783829 -3.577298 13.707467 5.280494 0.000000 0.000000 0.000000
-62.092760 80.319571 337.871301 0.427998 -1.219682 -4.185336 0.376242 -0.193591 4.224836 0.030987 -0.280115 0.049917 3.104827 -4.486644 0.443763 0.000000 0.000000 0.000000 1.738318 0.881477 -0.034337 1.302314 -1.277328 -1.331912 13.917522 -9.846634 3.556891 -14.330638 17.957095 0.187712 0.000000 0.000000 0.000000 0.000000 0.000000 0.000000 4.913307 -0.230719 -0.395141 -15.249210 1.825420 2.954344 10.630931 8.983514 -7.026753 0.102200 -6.519703 4.404492 0.000000 0.000000 0.000000 0.000000 0.000000 0.000000 -1.442990 1.945725 3.999180 4.162381 -1.352088 1.509732 1.459521 23.044716 -8.278292 0.000000 0.000000 0.000000 -0.783423 -0.431274 3.942897 3.163400 1.447274 0.971322 -5.011975 6.672911 4.599177 0.000000 0.000000 0.000000
-62.675991 80.121415 337.885453 1.012083 -1.598535 -2.657998 0.428846 -0.241718 2.730499 0.035332 -0.292220 0.080244 5.064461 -4.824651 0.473453 0.000000 0.000000 0.000000 2.491454 1.345549 -0.199564 0.089242 0.371756 -1.464174 13.256344 -11.818824 4.484099 -13.357168 18.404409 -0.237578 0.000000 0.000000 0.000000 0.000000 0.000000 0.000000 7.068495 -0.635217 -0.567402 -16.811806 3.496918 3.065531 13.935641 9.540970 -7.148494 -5.133521 -10.265221 4.129640 0.000000 0.000000 0.000000 0.000000 0.000000 0.000000 -2.206381 2.749047 2.417581 5.090621 -1.584392 1.862106 0.963722 28.142736 -9.361224 0.000000 0.000000 0.000000 -1.004593 -0.107873 2.411409 3.299202 1.353982 1.118596 -6.245085 2.017859 3.982420 0.000000 0.000000 0.000000
-63.279591 79.886214 337.879735 1.735542 -1.985434 -1.066787 0.419961 -0.279698 1.182164 0.009320 -0.292240 0.111970 8.380705 -5.134037 0.499409 0.000000 0.000000 0.000000 2.393970 1.202277 -0.154050 -0.502648 2.333498 -1.706304 13.644904 -10.899820 3.546629 -13.190218 16.336066 0.443723 0.000000 0.000000 0.000000 0.000000 0.000000 0.000000 8.667112 -1.176117 -0.747917 -15.062808 9.087024 2.768849 15.423508 9.909732 -8.205339 -12.136083 -18.410563 4.619677 0.000000 0.000000 0.000000 0.000000 0.000000 0.000000 -2.893873 3.622818 0.793455 5.695599 -1.850131 2.156865 0.030582 31.496137 -9.640682 0.000000 0.000000 0.000000 -1.120513 0.525910 0.860390 3.034500 0.860612 1.191137 -7.112214 -2.565167 2.980492 0.000000 0.000000 0.000000
-63.885073 79.619272 337.917599 2.644453 -2.299437 0.716691 0.424608 -0.297373 -0.545678 0.002838 -0.285688 0.152356 11.420971 -5.175390 0.459676 0.000000 0.000000 0.000000 2.376505 0.892663 -0.111340 -1.336143 3.641569 -1.903632 13.385122 -13.209824 4.814659 -12.274536 17.702322 -0.377917 0.000000 0.000000 0.000000 0.000000 0.000000 0.000000 9.704567 -2.323447 -0.946176 -4.506318 30.496814 -0.875370 11.639574 7.740957 -14.843438 -17.586308 -41.836822 8.945802 0.000000 0.000000 0.000000 0.000000 0.000000 0.000000 -3.441231 4.567801 -1.016977 5.792156 -2.225483 2.363093 2.394642 38.891685 -12.996882 0.000000 0.000000 0.000000 -1.578315 0.935019 -0.893655 3.098175 0.339937 1.298842 -7.732090 -5.530004 1.782645 0.000000 0.000000 0.000000
-64.412705 79.347955 337.968640 3.652533 -2.521936 2.255798 0.419054 -0.299858 -2.022633 -0.013047 -0.271255 0.194748 14.025549 -5.311778 0.432324 0.000000 0.000000 0.000000 2.308859 0.625998 -0.104488 -2.191606 4.045807 -1.991393 12.423191 -14.793462 5.870263 -10.977538 19.866881 -1.346900 0.000000 0.000000 0.000000 0.000000 0.000000 0.000000 11.324983 -2.462156 -1.015343 23.243231 48.377595 -20.392832 24.467117 16.399756 -31.643175 -97.642739 -81.280541 -51.976938 0.000000 0.000000 0.000000 0.000000 0.000000 0.000000 -3.897438 5.358362 -2.564183 5.498026 -2.642328 2.468613 2.135961 41.459116 -13.217436 0.000000 0.000000 0.000000 -2.147885 1.176326 -2.410790 3.106691 -0.076171 1.397923 -7.890982 -5.614900 1.140227 0.000000 0.000000 0.000000
-64.854457 79.103581 338.034260 4.584506 -2.681938 3.582648 0.413404 -0.308234 -3.290355 -0.022074 -0.251180 0.233343 15.832464 -5.615976 0.458047 0.000000 0.000000 0.000000 2.192595 0.134063 -0.024630 -2.988202 4.050412 -2.049023 11.188772 -17.937343 7.976981 -7.455211 23.880265 -3.941186 0.000000 0.000000 0.000000 0.000000 0.000000 0.000000 14.477444 -2.287346 -1.034673 45.395087 48.768605 -38.863682 32.209393 17.083346 -36.443646 -172.406228 -62.780395 -113.735424 0.000000 0.000000 0.000000 0.000000 0.000000 0.000000 -4.226963 6.011889 -3.893282 5.075301 -3.026692 2.522182 1.057911 42.053736 -12.365551 0.000000 0.000000 0.000000 -2.746478 1.233514 -3.731770 3.181377 -0.034552 1.522362 -9.126271 -13.262693 -1.272587 0.000000 0.000000 0.000000
